<?xml version="1.0" encoding="UTF-8"?>
<svg xmlns="http://www.w3.org/2000/svg" xmlns:xlink="http://www.w3.org/1999/xlink" width="769.19pt" height="779.35pt" viewBox="0 0 769.19 779.35" version="1.1">
<g id="surface1">
<path style=" stroke:none;fill-rule:nonzero;fill:rgb(0.799561%,0.799561%,0.799561%);fill-opacity:1;" d="M 769.09375 1.257813 C 769.09375 259.089844 769.085938 516.921875 769.1875 774.757813 C 769.1875 778.507813 768.34375 779.351563 764.59375 779.347656 C 510.09375 779.246094 255.59375 779.257813 1.09375 779.257813 C 0.175781 777.523438 0.632813 775.652344 0.632813 773.855469 C 0.609375 518.210938 0.605469 262.5625 0.617188 6.917969 C 0.617188 0.0546875 -0.144531 0.78125 6.734375 0.78125 C 259.046875 0.769531 511.359375 0.769531 763.671875 0.792969 C 765.476563 0.792969 767.351563 0.347656 769.09375 1.257813 "/>
<path style=" stroke:none;fill-rule:nonzero;fill:rgb(100%,100%,100%);fill-opacity:1;" d="M 769.09375 1.257813 C 515.09375 1.257813 261.097656 1.273438 7.101563 1.132813 C 2.097656 1.128906 0.964844 2.261719 0.96875 7.261719 C 1.109375 264.59375 1.09375 521.925781 1.09375 779.257813 C 0.785156 779.039063 0.0507813 779.761719 0.0820313 778.757813 C 0.125 777.425781 0.09375 776.089844 0.09375 774.757813 C 0.09375 518.089844 0.101563 261.421875 0 4.757813 C 0 1.007813 0.84375 0.160156 4.59375 0.164063 C 257.925781 0.265625 511.261719 0.253906 764.59375 0.316406 C 766.058594 0.316406 767.984375 -0.835938 769.09375 1.257813 "/>
<path style=" stroke:none;fill-rule:nonzero;fill:rgb(94.898987%,41.999817%,12.89978%);fill-opacity:1;" d="M 391.398438 752.792969 C 391.398438 750.648438 391.398438 748.851563 391.398438 747.054688 C 391.398438 515.742188 391.410156 284.433594 391.300781 53.121094 C 391.296875 48.523438 392.082031 46.921875 397.15625 46.949219 C 437.820313 47.183594 478.484375 47.125 519.144531 47.007813 C 522.851563 46.996094 524.195313 47.679688 524.191406 51.8125 C 524.078125 264.128906 524.09375 476.441406 524.097656 688.753906 C 524.097656 691.0625 524.335938 693.015625 521.390625 694.34375 C 478.613281 713.617188 435.910156 733.058594 393.1875 752.453125 C 392.898438 752.585938 392.546875 752.582031 391.398438 752.792969 "/>
<path style=" stroke:none;fill-rule:nonzero;fill:rgb(94.898987%,41.999817%,12.89978%);fill-opacity:1;" d="M 369.113281 753.167969 C 359.832031 748.984375 351.074219 745.058594 342.339844 741.089844 C 308.269531 725.59375 274.226563 710.035156 240.101563 694.65625 C 237.339844 693.414063 236.121094 691.992188 236.480469 689.089844 C 236.582031 688.269531 236.496094 687.425781 236.496094 686.59375 C 236.496094 475.652344 236.492188 264.714844 236.507813 53.777344 C 236.507813 46.070313 235.648438 47.101563 243.09375 47.097656 C 283.414063 47.0625 323.738281 47.148438 364.058594 46.980469 C 368.277344 46.964844 369.203125 48.171875 369.203125 52.253906 C 369.101563 284.183594 369.113281 516.117188 369.113281 748.050781 C 369.113281 749.519531 369.113281 750.988281 369.113281 753.167969 "/>
<path style=" stroke:none;fill-rule:nonzero;fill:rgb(94.898987%,41.999817%,12.89978%);fill-opacity:1;" d="M 213.816406 681.34375 C 200.035156 675.234375 187.121094 669.53125 174.226563 663.785156 C 137.597656 647.472656 101.003906 631.070313 64.308594 614.902344 C 59.863281 612.941406 57.96875 610.839844 58 605.53125 C 58.277344 555.535156 58.175781 505.539063 58.128906 455.539063 C 58.125 452.648438 58.65625 450.019531 59.800781 447.355469 C 66.417969 431.910156 72.871094 416.398438 79.492188 400.953125 C 80.570313 398.441406 81.117188 395.980469 81.113281 393.253906 C 81.074219 333.253906 81.070313 273.257813 81.125 213.261719 C 81.125 210.511719 80.511719 208.058594 79.449219 205.570313 C 72.78125 189.972656 66.214844 174.335938 59.558594 158.738281 C 58.558594 156.394531 58.128906 154.054688 58.132813 151.503906 C 58.179688 118.335938 58.226563 85.171875 58.078125 52.007813 C 58.0625 48.167969 58.933594 46.972656 62.96875 46.984375 C 111.632813 47.132813 160.296875 47.132813 208.960938 46.988281 C 212.988281 46.976563 213.898438 48.164063 213.894531 52.023438 C 213.804688 260.347656 213.816406 468.675781 213.816406 677 C 213.816406 678.148438 213.816406 679.300781 213.816406 681.34375 "/>
<path style=" stroke:none;fill-rule:nonzero;fill:rgb(94.898987%,41.598511%,12.89978%);fill-opacity:1;" d="M 547.011719 682.410156 C 547.011719 679.972656 547.011719 678.152344 547.011719 676.328125 C 547.011719 468.5625 547.027344 260.796875 546.90625 53.027344 C 546.902344 48.378906 547.761719 46.925781 552.761719 46.949219 C 600.910156 47.164063 649.0625 47.132813 697.214844 46.980469 C 701.359375 46.96875 702.472656 48.007813 702.449219 52.1875 C 702.269531 85.34375 702.332031 118.496094 702.378906 151.65625 C 702.382813 154.382813 701.902344 156.882813 700.828125 159.390625 C 694.339844 174.535156 687.96875 189.730469 681.480469 204.871094 C 680.207031 207.84375 679.625 210.8125 679.628906 214.054688 C 679.683594 273.535156 679.679688 333.015625 679.636719 392.496094 C 679.636719 395.722656 680.160156 398.6875 681.453125 401.679688 C 687.972656 416.792969 694.316406 431.988281 700.789063 447.121094 C 701.859375 449.625 702.382813 452.117188 702.382813 454.851563 C 702.335938 505.835938 702.339844 556.816406 702.378906 607.804688 C 702.382813 610.449219 702.15625 612.277344 699.171875 613.625 C 649.289063 636.136719 599.480469 658.808594 549.652344 681.4375 C 549.070313 681.703125 548.449219 681.886719 547.011719 682.410156 "/>
</g>
</svg>
